<svg id="visual" viewBox="0 0 2000 2000" width="2000" height="2000" xmlns="http://www.w3.org/2000/svg" xmlns:xlink="http://www.w3.org/1999/xlink" version="1.1"><path d="M0 381L182 541L364 441L545 221L727 541L909 181L1091 201L1273 241L1455 501L1636 301L1818 541L2000 321L2000 0L1818 0L1636 0L1455 0L1273 0L1091 0L909 0L727 0L545 0L364 0L182 0L0 0Z" fill="#d59b6c"></path><path d="M0 641L182 1261L364 1141L545 941L727 1101L909 1001L1091 1021L1273 1001L1455 921L1636 1121L1818 941L2000 901L2000 319L1818 539L1636 299L1455 499L1273 239L1091 199L909 179L727 539L545 219L364 439L182 539L0 379Z" fill="#d68b5f"></path><path d="M0 1401L182 1561L364 1541L545 1621L727 1501L909 1381L1091 1501L1273 1441L1455 1421L1636 1441L1818 1601L2000 1661L2000 899L1818 939L1636 1119L1455 919L1273 999L1091 1019L909 999L727 1099L545 939L364 1139L182 1259L0 639Z" fill="#d77956"></path><path d="M0 1741L182 1761L364 1881L545 1841L727 1821L909 1661L1091 1841L1273 1721L1455 1841L1636 1681L1818 1861L2000 1801L2000 1659L1818 1599L1636 1439L1455 1419L1273 1439L1091 1499L909 1379L727 1499L545 1619L364 1539L182 1559L0 1399Z" fill="#d86651"></path><path d="M0 2001L182 2001L364 2001L545 2001L727 2001L909 2001L1091 2001L1273 2001L1455 2001L1636 2001L1818 2001L2000 2001L2000 1799L1818 1859L1636 1679L1455 1839L1273 1719L1091 1839L909 1659L727 1819L545 1839L364 1879L182 1759L0 1739Z" fill="#d75050"></path></svg>